<svg width="126" height="37" viewBox="0 0 126 37" fill="none" xmlns="http://www.w3.org/2000/svg">
<path d="M25.9756 0H9.99364C4.477 0 0.00488281 4.47715 0.00488281 10V27C0.00488281 32.5228 4.477 37 9.99364 37H25.9756C31.4923 37 35.9644 32.5228 35.9644 27V10C35.9644 4.47715 31.4923 0 25.9756 0Z" fill="#490092"/>
<path d="M27.7339 13.6202V24.4382L22.5476 19.8167V8.99988L27.7339 13.6202Z" fill="#DEBCFF"/>
<path d="M22.5779 8.99988H10.9924L16.1926 13.6255H27.778L22.5779 8.99988Z" fill="#DEBCFF"/>
<path d="M13.1986 29.3965H24.7853L19.5815 24.7709H7.99609L13.1986 29.3965Z" fill="white"/>
<path d="M13.1818 18.6213V29.4381L7.99609 24.8178V13.9998L13.1818 18.6213Z" fill="white"/>
<path d="M70.0909 15.8694H65.8343C65.7776 15.4319 65.6612 15.037 65.4853 14.6848C65.3093 14.3325 65.0767 14.0313 64.7872 13.7813C64.4977 13.5313 64.1544 13.341 63.7571 13.2103C63.3655 13.074 62.9314 13.0058 62.4546 13.0058C61.609 13.0058 60.8797 13.2132 60.2667 13.6279C59.6594 14.0427 59.1912 14.6421 58.8621 15.4262C58.5385 16.2103 58.3768 17.1592 58.3768 18.2728C58.3768 19.4319 58.5414 20.4035 58.8705 21.1876C59.2054 21.966 59.6736 22.5541 60.2753 22.9518C60.8825 23.3438 61.6005 23.5399 62.429 23.5399C62.8944 23.5399 63.3172 23.4802 63.6975 23.3609C64.0835 23.2416 64.4211 23.0683 64.7106 22.841C65.0057 22.6081 65.2469 22.3268 65.4341 21.9973C65.6271 21.662 65.7605 21.2842 65.8343 20.8637L70.0909 20.8893C70.0171 21.662 69.7929 22.4234 69.4184 23.1734C69.0495 23.9234 68.5414 24.6081 67.8945 25.2274C67.2475 25.841 66.4586 26.3296 65.5278 26.6933C64.6028 27.0569 63.5415 27.2387 62.3439 27.2387C60.7661 27.2387 59.353 26.8921 58.1044 26.199C56.8615 25.5001 55.8796 24.4831 55.1588 23.1478C54.438 21.8126 54.0776 20.1876 54.0776 18.2728C54.0776 16.3524 54.4437 14.7245 55.1759 13.3893C55.908 12.0541 56.8984 11.0399 58.147 10.3467C59.3955 9.65347 60.7946 9.30688 62.3439 9.30688C63.3995 9.30688 64.3757 9.45461 65.2724 9.75006C66.1691 10.0399 66.958 10.466 67.6391 11.0285C68.3201 11.5853 68.8735 12.27 69.2992 13.0825C69.7248 13.895 69.9887 14.824 70.0909 15.8694ZM78.9466 27.0001H72.5022V9.54552H78.9381C80.7145 9.54552 82.2441 9.89495 83.5268 10.5939C84.815 11.287 85.8083 12.287 86.5063 13.5939C87.2044 14.895 87.5534 16.4518 87.5534 18.2643C87.5534 20.0825 87.2044 21.645 86.5063 22.9518C85.8139 24.2586 84.8236 25.2615 83.5353 25.9603C82.2469 26.6535 80.7174 27.0001 78.9466 27.0001ZM76.7162 23.4035H78.7849C79.7611 23.4035 80.5869 23.2387 81.2622 22.9092C81.9433 22.574 82.4569 22.0313 82.8031 21.2813C83.155 20.5257 83.3309 19.52 83.3309 18.2643C83.3309 17.0086 83.155 16.0086 82.8031 15.2643C82.4513 14.5143 81.932 13.9745 81.2452 13.645C80.5642 13.3098 79.7242 13.1421 78.7253 13.1421H76.7162V23.4035ZM90.0138 9.54552H95.2323L99.6591 20.3524H99.8635L104.291 9.54552H109.509V27.0001H105.405V16.2785H105.26L101.072 26.8893H98.4503L94.2618 16.2189H94.117V27.0001H90.0138V9.54552ZM121.561 14.7785C121.504 14.1535 121.252 13.6677 120.804 13.3211C120.36 12.9689 119.728 12.7927 118.905 12.7927C118.361 12.7927 117.906 12.8637 117.543 13.0058C117.18 13.1478 116.907 13.3439 116.726 13.5939C116.544 13.8382 116.451 14.1194 116.445 14.4376C116.434 14.699 116.485 14.9291 116.598 15.1279C116.718 15.3268 116.887 15.5029 117.109 15.6563C117.336 15.8041 117.609 15.9348 117.926 16.0484C118.244 16.162 118.601 16.2615 118.999 16.3467L120.497 16.6876C121.359 16.8751 122.121 17.1251 122.779 17.4376C123.443 17.7501 123.999 18.1223 124.447 18.5541C124.901 18.9859 125.245 19.4831 125.478 20.0456C125.71 20.6081 125.829 21.2387 125.835 21.9376C125.829 23.0399 125.552 23.9859 125 24.7757C124.45 25.5654 123.659 26.1706 122.626 26.591C121.598 27.0115 120.358 27.2217 118.905 27.2217C117.447 27.2217 116.175 27.0029 115.091 26.5654C114.008 26.1279 113.165 25.4632 112.563 24.5711C111.961 23.6791 111.652 22.5512 111.635 21.1876H115.67C115.705 21.7501 115.855 22.2189 116.121 22.5939C116.388 22.9689 116.755 23.2529 117.22 23.4461C117.69 23.6393 118.236 23.7359 118.854 23.7359C119.422 23.7359 119.904 23.6592 120.302 23.5058C120.704 23.3524 121.014 23.1393 121.23 22.8666C121.445 22.5938 121.556 22.2813 121.561 21.9291C121.556 21.5995 121.453 21.3183 121.254 21.0853C121.057 20.8467 120.75 20.6421 120.336 20.4717C119.927 20.2956 119.405 20.1336 118.769 19.9859L116.947 19.5598C115.437 19.2132 114.248 18.6535 113.38 17.8808C112.512 17.1024 112.081 16.0512 112.086 14.7274C112.081 13.6478 112.369 12.7018 112.955 11.8893C113.539 11.0768 114.348 10.4433 115.381 9.9887C116.414 9.53415 117.592 9.30688 118.914 9.30688C120.265 9.30688 121.436 9.53699 122.429 9.99722C123.428 10.4518 124.203 11.091 124.754 11.9149C125.304 12.7387 125.586 13.6933 125.597 14.7785H121.561Z" fill="black"/>
</svg>
